<svg width="60" height="60" viewBox="0 0 60 60" fill="white" xmlns="http://www.w3.org/2000/svg">
<path d="M43.602 28.6167C43.5985 31.894 43.3387 35.2034 42.5569 38.3934C42.2752 39.5426 41.9109 40.7066 41.4227 41.6996C41.2226 42.1064 40.9919 42.4997 40.719 42.8621C40.8081 42.7438 40.636 42.9589 40.6067 42.9925C40.5483 43.0588 40.4875 43.1231 40.4245 43.1851C40.365 43.2436 40.3031 43.2997 40.2391 43.3532C40.1306 43.4449 40.3501 43.2717 40.2384 43.3552C40.1974 43.3858 40.1547 43.4142 40.1119 43.4421C40.0501 43.4823 39.9855 43.5176 39.9199 43.5508C39.8836 43.5692 39.7634 43.6184 39.9374 43.5468C39.9053 43.56 39.8724 43.5712 39.8395 43.5824C39.7751 43.6044 39.7089 43.6201 39.6422 43.6334C39.517 43.6584 39.7995 43.6168 39.6729 43.6301C39.6284 43.6347 39.5838 43.6359 39.5391 43.6363L39.8497 43.7204C39.76 43.6792 39.6787 43.6455 39.5826 43.6269L39.4191 43.6049C39.579 43.6383 39.6279 43.6435 39.5661 43.6208L39.3703 43.5453L38.7661 43.3121C38.6021 43.2489 38.9456 43.4323 38.7755 43.2843C38.7058 43.2237 38.6402 43.1584 38.5759 43.0921C38.5075 43.0216 38.4432 42.9469 38.3802 42.8715C38.3683 42.8573 38.2637 42.723 38.3481 42.8336C38.3048 42.7763 38.2627 42.7181 38.2217 42.659C37.5609 41.7182 37.1937 40.6988 36.859 39.6118C35.8623 36.3746 35.5472 32.9214 35.4842 29.5495C35.419 26.0597 35.6577 22.5203 36.4539 19.115C36.7468 17.8624 37.1254 16.595 37.6785 15.4842C37.7886 15.2636 37.9085 15.0481 38.0377 14.8381C38.0973 14.7417 38.1595 14.6469 38.2241 14.5538C38.2551 14.5093 38.2867 14.4652 38.319 14.4217C38.3616 14.3652 38.3614 14.3649 38.3186 14.4208C38.3398 14.394 38.3613 14.3675 38.3831 14.3411C38.6797 13.9785 39.0729 13.5896 39.5726 13.5954C39.6061 13.5958 39.6395 13.5985 39.6729 13.6013C39.7997 13.6117 39.5164 13.5759 39.6422 13.598C39.7092 13.6098 39.7748 13.6284 39.8395 13.649C39.8726 13.6595 39.905 13.6721 39.9374 13.6846C39.7638 13.6173 39.8822 13.6623 39.9199 13.6806C39.9975 13.7181 40.0714 13.7631 40.1436 13.8101C40.1759 13.8311 40.2071 13.8537 40.2384 13.8763C40.3513 13.9581 40.1293 13.7882 40.2391 13.8784C40.3036 13.9313 40.3646 13.9885 40.4245 14.0465C40.488 14.1081 40.5479 14.1733 40.6067 14.2392C40.6375 14.2737 40.667 14.3091 40.6966 14.3445C40.8051 14.4743 40.6856 14.3253 40.7484 14.4087C41.3693 15.2331 41.7207 16.1176 42.0384 17.0477C43.0151 19.9071 43.3803 22.9802 43.536 25.9841C43.5814 26.8609 43.6011 27.7388 43.602 28.6167C43.6029 29.4102 44.8334 29.4102 44.8325 28.6167C44.829 25.2872 44.5566 21.9185 43.7827 18.6736C43.4934 17.4604 43.1161 16.2651 42.5913 15.1322C42.228 14.3483 41.7543 13.5381 41.078 12.9828C40.2374 12.2928 39.1847 12.1544 38.2455 12.7935C37.4045 13.3657 36.8588 14.3201 36.4437 15.2237C35.1513 18.0368 34.6924 21.2368 34.4262 24.2932C34.1058 27.9719 34.1974 31.698 34.7014 35.3556C34.9147 36.9029 35.2185 38.4433 35.6724 39.939C36.0138 41.0639 36.4448 42.2034 37.0966 43.1884C37.3436 43.5617 37.6294 43.9227 37.9726 44.2122C38.3204 44.5053 38.7745 44.6283 39.1946 44.7904L39.2507 44.812C39.252 44.8125 39.2534 44.8131 39.2548 44.8135C39.4819 44.8516 39.4731 44.8414 39.2284 44.7829C39.3772 44.8512 39.5136 44.8738 39.6728 44.8606C39.8637 44.8449 40.0517 44.8116 40.2318 44.746C40.6114 44.6076 40.9363 44.3867 41.233 44.114C41.9054 43.4958 42.3599 42.6372 42.7212 41.8112C43.2359 40.6343 43.5954 39.3992 43.878 38.1479C44.5816 35.0324 44.829 31.805 44.8324 28.6167C44.8334 27.8232 43.6029 27.8232 43.602 28.6167Z" fill="#131515"/>
<path d="M38.5712 43.2111L33.1091 41.2333L22.4951 37.3902L15.3878 34.8168C14.4545 34.4788 13.5211 34.1409 12.5877 33.803L13.0394 34.3963V22.824L12.5877 23.4172L17.6434 21.5867L28.1101 17.797L36.9376 14.6008L38.541 14.0203L37.9424 12.9919C37.2041 13.6323 36.7178 14.5468 36.3354 15.4308C35.7775 16.7204 35.4017 18.0773 35.1118 19.4498C34.3642 22.988 34.1623 26.6524 34.2703 30.2605C34.3588 33.2143 34.6756 36.2009 35.4183 39.0666C35.702 40.1613 36.065 41.2407 36.5565 42.2607C36.9046 42.9831 37.3534 43.7172 37.9727 44.2394C38.2288 44.4554 38.5906 44.4915 38.8428 44.2394C39.0647 44.0174 39.0994 43.5857 38.8428 43.3693C38.6996 43.2485 38.5684 43.1164 38.445 42.9755C38.4118 42.9376 38.3799 42.8985 38.348 42.8595C38.2393 42.7263 38.4217 42.9593 38.3164 42.8184C38.2392 42.7152 38.1672 42.6081 38.0971 42.4999C37.8287 42.0864 37.5672 41.5596 37.4 41.1602C36.8595 39.8692 36.5117 38.4981 36.2365 37.129C35.5262 33.5958 35.3738 29.9398 35.5233 26.3459C35.6349 23.6622 35.9463 20.9664 36.6322 18.3651C36.8884 17.3935 37.2079 16.4187 37.6239 15.5573C37.9683 14.8441 38.2715 14.3314 38.8127 13.8621C39.2702 13.4653 38.7882 12.6258 38.2141 12.8337L33.1584 14.6643L22.6917 18.454L13.8641 21.6502L12.2607 22.2307C12.0003 22.325 11.809 22.5338 11.809 22.824V34.3963C11.809 34.6864 12.0003 34.8953 12.2607 34.9896L17.3425 36.8294L27.1383 40.3763L36.4579 43.7507L38.2442 44.3975C38.5598 44.5118 38.9174 44.2719 39.001 43.9678C39.0952 43.6252 38.8863 43.3252 38.5712 43.2111Z" fill="#131515"/>
<path d="M11.8089 22.8603V34.3711L12.4242 33.7559H7.56137C7.02951 33.7559 6.58367 33.3998 6.43332 32.8965C6.32047 32.5187 6.39154 31.9988 6.39154 31.5967V24.6898C6.39154 23.9502 6.95023 23.4755 7.66771 23.4755H12.4242C13.2177 23.4755 13.2177 22.245 12.4242 22.245H7.56143C6.78775 22.245 6.07338 22.6266 5.61699 23.2436C5.17836 23.8365 5.16113 24.5059 5.16113 25.2009V32.3502C5.16113 33.3219 5.53338 34.2033 6.41686 34.6958C6.89035 34.9598 7.40311 34.9863 7.92705 34.9863H12.4242C12.7596 34.9863 13.0395 34.7064 13.0395 34.3711V22.8603C13.0394 22.0668 11.8089 22.0668 11.8089 22.8603ZM37.6053 28.6171C37.5976 29.549 37.3563 30.4479 36.8105 31.2105C36.6 31.5047 36.3221 31.732 36.0173 31.9029C35.6897 32.0866 35.414 32.0958 35.0241 32.0958L35.6393 32.711C35.4142 29.9893 35.4174 27.2402 35.6332 24.518L35.0179 25.1333C35.3881 25.1354 35.6525 25.1473 35.9565 25.2971C36.309 25.4708 36.5555 25.7071 36.8145 26.0259C37.3791 26.7212 37.598 27.7273 37.6053 28.6171C37.6118 29.4102 38.8423 29.4109 38.8358 28.6171C38.8258 27.3971 38.4862 26.186 37.7311 25.2158C37.419 24.8149 37.0282 24.4722 36.5775 24.2347C36.0768 23.971 35.5738 23.9061 35.0178 23.9028C34.6625 23.9008 34.4289 24.1854 34.4026 24.518C34.1868 27.2402 34.1837 29.9893 34.4087 32.711C34.4364 33.0451 34.6677 33.3263 35.024 33.3263C35.5647 33.3263 36.0206 33.2547 36.516 33.0276C36.9709 32.819 37.3712 32.4624 37.6843 32.0771C38.4747 31.1049 38.8255 29.8573 38.8357 28.617C38.8423 27.8233 37.6119 27.824 37.6053 28.6171ZM49.1417 29.1388H54.4969C55.2904 29.1388 55.2904 27.9083 54.4969 27.9083H49.1417C48.3482 27.9083 48.3482 29.1388 49.1417 29.1388ZM48.3867 19.4268L52.6721 16.2151C52.9398 16.0144 53.0769 15.6876 52.8928 15.3733C52.7378 15.1088 52.3201 14.951 52.051 15.1526L47.7657 18.3644C47.4979 18.565 47.3609 18.8918 47.545 19.2061C47.6999 19.4707 48.1177 19.6285 48.3867 19.4268ZM47.7657 38.6827L52.051 41.8944C52.3201 42.096 52.7379 41.9382 52.8928 41.6737C53.0769 41.3594 52.9399 41.0326 52.6721 40.8319L48.3867 37.6202C48.1177 37.4186 47.6999 37.5764 47.545 37.8409C47.3608 38.1552 47.4979 38.482 47.7657 38.6827Z" fill="#131515"/>
<path d="M14.3916 35.1598L12.8573 43.7887L12.5504 45.5142L12.5003 45.7961C12.4671 45.9829 12.3953 46.0579 12.2438 46.1024C12.2182 46.1099 12.0103 46.0841 12.1741 46.1133L12.0633 46.0936L9.62994 45.6605L8.91486 45.5333C8.74681 45.5034 8.61943 45.4033 8.60578 45.2906C8.59728 45.2204 8.62652 45.0441 8.59658 45.2128L8.60408 45.1705L10.2176 36.0973L10.4955 34.5346L9.90228 34.9863H12.4242L11.809 34.3711V34.3963C11.809 34.6865 12.0002 34.8953 12.2606 34.9896L14.8213 35.9166C15.1369 36.0309 15.4945 35.791 15.5782 35.4869C15.6724 35.1442 15.4635 34.8441 15.1485 34.7301L12.5878 33.8031L13.0394 34.3963V34.3711C13.0394 34.0357 12.7596 33.7559 12.4242 33.7559H9.90228C9.64798 33.7559 9.35636 33.9415 9.30902 34.2076L7.77363 42.8408L7.46273 44.5889L7.40941 44.8885C7.27488 45.645 7.64531 46.3567 8.36191 46.6495C8.59851 46.7462 8.86916 46.7699 9.11918 46.8144L10.4501 47.0512C11.2378 47.1914 12.1702 47.5106 12.9275 47.1462C13.5444 46.8494 13.6685 46.2254 13.774 45.6325L14.1202 43.6854L15.0997 38.1769L15.578 35.487C15.6367 35.1571 15.4938 34.8252 15.1484 34.7302C14.8481 34.6475 14.4503 34.8293 14.3916 35.1598Z" fill="#131515"/>
</svg>
