<svg width="60" height="60" viewBox="0 0 60 60" fill="none" xmlns="http://www.w3.org/2000/svg">
<path d="M33.2225 33.07C31.0625 33.0691 28.9402 33.6364 27.0688 34.715C26.9621 34.7766 26.8686 34.8587 26.7936 34.9565C26.7186 35.0543 26.6636 35.1659 26.6317 35.2849C26.5999 35.4039 26.5917 35.5281 26.6079 35.6502C26.624 35.7724 26.664 35.8902 26.7256 35.9969C26.7873 36.1036 26.8693 36.1971 26.9671 36.2721C27.0649 36.3471 27.1765 36.4021 27.2955 36.4339C27.4145 36.4658 27.5387 36.4739 27.6609 36.4578C27.783 36.4417 27.9008 36.4016 28.0075 36.34C30.3057 35.0113 33.0234 34.6069 35.6089 35.2089C38.1943 35.8109 40.4538 37.3743 41.9287 39.5815C43.4035 41.7888 43.9831 44.4746 43.5498 47.0936C43.1165 49.7127 41.7029 52.0687 39.5958 53.6834C37.4886 55.2981 34.8461 56.0505 32.2044 55.7878C29.5628 55.5251 27.1202 54.267 25.3724 52.2689C23.6245 50.2708 22.7026 47.6825 22.7936 45.0294C22.8846 42.3764 23.9819 39.8573 25.8625 37.9838C25.9522 37.8975 26.0239 37.7942 26.0733 37.6799C26.1226 37.5657 26.1488 37.4427 26.1501 37.3183C26.1515 37.1938 26.1281 37.0703 26.0812 36.955C26.0343 36.8397 25.965 36.7349 25.8772 36.6466C25.7894 36.5584 25.6849 36.4886 25.5698 36.4412C25.4547 36.3938 25.3313 36.3697 25.2068 36.3705C25.0824 36.3713 24.9593 36.3969 24.8448 36.4457C24.7303 36.4945 24.6267 36.5657 24.54 36.655C22.5205 38.6646 21.2607 41.3125 20.9753 44.1471C20.6899 46.9818 21.3967 49.8276 22.9752 52.1994C24.5536 54.5712 26.9059 56.322 29.6309 57.1532C32.3559 57.9844 35.2849 57.8446 37.9184 56.7577C40.5518 55.6707 42.7267 53.7038 44.072 51.1925C45.4174 48.6812 45.85 45.781 45.2959 42.9864C44.7419 40.1918 43.2356 37.6759 41.0339 35.8678C38.8322 34.0597 36.0715 33.0713 33.2225 33.0713V33.07Z" fill="#131515"/>
<path d="M34.2412 49.085H31.8875C31.7055 49.0853 31.5252 49.0498 31.357 48.9804C31.1888 48.911 31.0358 48.8092 30.907 48.6807C30.7781 48.5522 30.6759 48.3995 30.606 48.2315C30.5362 48.0634 30.5002 47.8832 30.5 47.7012C30.5 47.4526 30.4012 47.2141 30.2254 47.0383C30.0496 46.8625 29.8111 46.7637 29.5625 46.7637C29.3139 46.7637 29.0754 46.8625 28.8996 47.0383C28.7238 47.2141 28.625 47.4526 28.625 47.7012C28.626 48.5652 28.9696 49.3935 29.5806 50.0044C30.1915 50.6154 31.0198 50.959 31.8838 50.96H32.125V52.7575C32.125 53.0061 32.2238 53.2446 32.3996 53.4204C32.5754 53.5962 32.8139 53.695 33.0625 53.695C33.3111 53.695 33.5496 53.5962 33.7254 53.4204C33.9012 53.2446 34 53.0061 34 52.7575V50.96H34.2388C35.103 50.96 35.9319 50.6167 36.543 50.0055C37.1542 49.3944 37.4975 48.5655 37.4975 47.7012C37.4975 46.837 37.1542 46.0081 36.543 45.397C35.9319 44.7858 35.103 44.4425 34.2388 44.4425H31.8875C31.5275 44.4317 31.186 44.2811 30.9352 44.0226C30.6844 43.7642 30.5441 43.4182 30.5441 43.0581C30.5441 42.698 30.6844 42.352 30.9352 42.0936C31.186 41.8352 31.5275 41.6846 31.8875 41.6737H34.2412C34.6081 41.6741 34.9599 41.82 35.2193 42.0794C35.4788 42.3388 35.6247 42.6906 35.625 43.0575C35.625 43.3061 35.7238 43.5446 35.8996 43.7204C36.0754 43.8962 36.3139 43.995 36.5625 43.995C36.8111 43.995 37.0496 43.8962 37.2254 43.7204C37.4012 43.5446 37.5 43.3061 37.5 43.0575C37.499 42.1935 37.1554 41.3652 36.5444 40.7543C35.9335 40.1434 35.1052 39.7997 34.2412 39.7987H34V38C34 37.7514 33.9012 37.5129 33.7254 37.3371C33.5496 37.1613 33.3111 37.0625 33.0625 37.0625C32.8139 37.0625 32.5754 37.1613 32.3996 37.3371C32.2238 37.5129 32.125 37.7514 32.125 38V39.7987H31.8875C31.0341 39.8155 30.2213 40.1662 29.6237 40.7756C29.0261 41.3851 28.6913 42.2046 28.6913 43.0581C28.6913 43.9117 29.0261 44.7312 29.6237 45.3406C30.2213 45.95 31.0341 46.3008 31.8875 46.3175H34.2412C34.6082 46.3175 34.9602 46.4633 35.2197 46.7228C35.4792 46.9823 35.625 47.3343 35.625 47.7012C35.625 48.0682 35.4792 48.4202 35.2197 48.6797C34.9602 48.9392 34.6082 49.085 34.2412 49.085ZM55.5212 19.5462C55.2844 19.4882 55.0343 19.5247 54.824 19.648C54.6136 19.7713 54.4595 19.9717 54.3945 20.2067C54.3294 20.4417 54.3585 20.6928 54.4755 20.9067C54.5925 21.1206 54.7883 21.2805 55.0212 21.3525C57.5575 22.0575 58.1287 22.8525 58.1287 23.0675C58.1287 23.85 54.46 25.685 47.3475 25.685C40.235 25.685 36.565 23.85 36.565 23.0675C36.565 22.285 40.2325 20.45 47.3475 20.45C49.0302 20.4439 50.711 20.5622 52.3763 20.8037C52.6187 20.8326 52.8629 20.7658 53.057 20.6176C53.2511 20.4693 53.3797 20.2513 53.4157 20.0098C53.4516 19.7682 53.392 19.5222 53.2495 19.3238C53.1071 19.1255 52.8929 18.9905 52.6525 18.9475C50.8957 18.6932 49.1226 18.5679 47.3475 18.5725C41.2512 18.5725 34.69 19.9787 34.69 23.065V30.3587C34.69 33.445 41.2512 34.8512 47.3475 34.8512C51.445 34.8512 55.745 34.2125 58.1287 32.8575V34.005C58.1287 34.7875 54.46 36.6225 47.3475 36.6225C46.5312 36.6225 45.7363 36.5975 44.9725 36.5475C44.7244 36.533 44.4805 36.6166 44.2934 36.7803C44.1064 36.944 43.9911 37.1746 43.9725 37.4225C43.9638 37.5457 43.9797 37.6694 44.019 37.7865C44.0584 37.9035 44.1205 38.0117 44.2019 38.1046C44.2832 38.1976 44.3821 38.2735 44.4929 38.3281C44.6037 38.3826 44.7242 38.4147 44.8475 38.4225C45.6537 38.475 46.49 38.5025 47.3475 38.5025C51.445 38.5025 55.745 37.8637 58.1287 36.5025V37.65C58.1287 38.4325 54.46 40.275 47.3475 40.275H47.0387C46.9863 40.275 46.9562 40.275 46.7887 40.275C46.5429 40.2767 46.3067 40.3713 46.1278 40.5398C45.9488 40.7084 45.8402 40.9384 45.8237 41.1837C45.8167 41.4324 45.9085 41.6738 46.0791 41.8549C46.2496 42.036 46.4851 42.1422 46.7337 42.15C46.8588 42.15 46.9375 42.15 46.99 42.15H47.115H47.3575C51.455 42.15 55.755 41.51 58.1388 40.15V41.2975C58.1388 42.08 54.47 43.915 47.3575 43.915C47.1089 43.915 46.8704 44.0138 46.6946 44.1896C46.5188 44.3654 46.42 44.6039 46.42 44.8525C46.42 45.1011 46.5188 45.3396 46.6946 45.5154C46.8704 45.6912 47.1089 45.79 47.3575 45.79C51.455 45.79 55.755 45.15 58.1388 43.7962V45.035C58.1388 45.8175 54.47 47.6525 47.3575 47.6525H47.0213C46.7768 47.6631 46.5448 47.7636 46.3699 47.9348C46.195 48.106 46.0896 48.3358 46.0738 48.58C46.0714 48.8285 46.1677 49.0679 46.3416 49.2455C46.5155 49.4231 46.7527 49.5245 47.0013 49.5275H47.3575C53.4388 49.5312 60 48.125 60 45.0387V23.0675C60 22.03 59.2225 20.5775 55.5212 19.5462ZM47.3438 27.56C51.4412 27.56 55.7412 26.9212 58.125 25.5662V26.7137C58.125 27.4962 54.4562 29.3387 47.3438 29.3387C40.2313 29.3387 36.5612 27.5025 36.5612 26.7137V25.5662C38.945 26.9212 43.25 27.56 47.3438 27.56ZM47.3438 32.9787C40.2287 32.9787 36.5612 31.1437 36.5612 30.3612V29.2137C38.945 30.5687 43.2438 31.2137 47.3438 31.2137C51.4437 31.2137 55.7412 30.575 58.125 29.2137V30.3612C58.125 31.1437 54.4562 32.9787 47.3438 32.9787ZM19.75 50.35C19.42 50.3625 19.0875 50.37 18.75 50.37C8.8125 50.37 1.875 44.6687 1.875 36.5062C1.875 29.85 6.375 20.0062 13.0863 15.9625C13.1775 15.9062 13.2537 15.8375 13.3362 15.775H21C21.2486 15.775 21.4871 15.6762 21.6629 15.5004C21.8387 15.3246 21.9375 15.0861 21.9375 14.8375C21.9375 14.5889 21.8387 14.3504 21.6629 14.1746C21.4871 13.9988 21.2486 13.9 21 13.9H14.5187C14.6467 13.1953 14.5009 12.4684 14.1112 11.8675C10.9425 6.95875 10.3263 4.74999 10.4412 4.17749C10.4533 4.18456 10.4673 4.18763 10.4813 4.18624C11.8891 4.19605 13.2881 4.40908 14.635 4.81875C15.9381 5.21483 17.2906 5.42523 18.6525 5.44375C20.1922 5.40598 21.7214 5.18014 23.2063 4.77124C24.383 4.44722 25.5912 4.25108 26.81 4.18624C26.7763 4.89249 26.0763 6.97874 23.655 11.1112H16.5C16.2514 11.1112 16.0129 11.21 15.8371 11.3858C15.6613 11.5616 15.5625 11.8001 15.5625 12.0487C15.5625 12.2974 15.6613 12.5358 15.8371 12.7117C16.0129 12.8875 16.2514 12.9862 16.5 12.9862H22.8275C22.7813 13.3357 22.8017 13.6907 22.8875 14.0325C22.988 14.4208 23.165 14.7852 23.4082 15.1042C23.6514 15.4231 23.9559 15.6903 24.3038 15.89C27.6785 18.0879 30.4152 21.1354 32.2388 24.7262C32.2958 24.8376 32.3745 24.9364 32.4703 25.0168C32.5661 25.0973 32.6771 25.1577 32.7966 25.1946C32.9161 25.2315 33.0419 25.2441 33.1663 25.2317C33.2908 25.2192 33.4115 25.182 33.5214 25.1222C33.6313 25.0624 33.7281 24.9812 33.8061 24.8834C33.8841 24.7856 33.9417 24.6732 33.9756 24.5527C34.0095 24.4323 34.0189 24.3063 34.0034 24.1822C33.9878 24.0581 33.9476 23.9383 33.885 23.83C31.9003 19.9423 28.9252 16.6469 25.26 14.2762C25.1256 14.2015 25.0075 14.1008 24.9124 13.98C24.8173 13.8592 24.7472 13.7207 24.7062 13.5725C24.6743 13.4481 24.6679 13.3184 24.6874 13.1915C24.707 13.0645 24.7521 12.9428 24.82 12.8337C29.525 5.00625 28.765 3.66249 28.445 3.08374C28.3025 2.83718 28.0954 2.63415 27.8461 2.49649C27.5967 2.35883 27.3146 2.29176 27.03 2.30249C25.5928 2.34383 24.1658 2.5583 22.78 2.94124C21.4355 3.3164 20.0503 3.52629 18.655 3.56624C17.4551 3.54492 16.2641 3.35429 15.1175 3C13.6134 2.55085 12.0534 2.31686 10.4838 2.30499C10.1484 2.28328 9.81382 2.35684 9.51854 2.5172C9.22326 2.67756 8.97936 2.91817 8.815 3.21124C8.5 3.78999 7.6625 5.3275 12.5387 12.88C12.6121 12.9888 12.6621 13.1116 12.6855 13.2407C12.709 13.3698 12.7054 13.5024 12.675 13.63C12.6362 13.7822 12.5671 13.925 12.4717 14.0498C12.3763 14.1746 12.2567 14.2789 12.12 14.3562C4.875 18.7275 0 29.3387 0 36.5062C0 45.625 7.8875 52.25 18.75 52.25C19.11 52.25 19.4675 52.2425 19.8225 52.2275C19.9456 52.2227 20.0666 52.1936 20.1785 52.142C20.2903 52.0904 20.391 52.0173 20.4746 51.9268C20.5582 51.8364 20.6232 51.7303 20.6659 51.6147C20.7085 51.4991 20.728 51.3762 20.7231 51.2531C20.7183 51.13 20.6892 51.009 20.6376 50.8972C20.5861 50.7853 20.5129 50.6846 20.4225 50.601C20.332 50.5174 20.2259 50.4524 20.1103 50.4097C19.9947 50.3671 19.8719 50.3477 19.7487 50.3525L19.75 50.35Z" fill="#131515"/>
</svg>
