<svg width="256" height="256" viewBox="0 0 256 256" fill="none" xmlns="http://www.w3.org/2000/svg">
<path d="M142.5 50.6087V40C142.5 38.8954 141.605 38 140.5 38H121C115.221 38.7638 112.77 40.3476 110 45.5L59.5 154.5C54 169.5 63.5 174.5 71.0001 174.5H176.5C183 174.5 188.5 162.5 186.5 156.5L168.032 115.676C167.708 114.96 166.995 114.5 166.21 114.5H130.533C129.097 114.5 128.129 113.032 128.695 111.712L136.301 93.9635C136.972 92.3984 139.167 92.3339 139.928 93.8569L141.947 97.8944C142.286 98.572 142.979 99 143.736 99H156.918C158.366 99 159.334 97.508 158.744 96.1851L146.029 67.6851C145.707 66.9643 144.992 66.5 144.202 66.5H132.787C132.003 66.5 131.292 66.958 130.967 67.6716L94.7497 147.254C94.1567 148.557 95.0849 150.043 96.5161 150.082L110.638 150.463C111.46 150.485 112.211 150.003 112.533 149.246L119.982 131.718C120.296 130.979 121.021 130.5 121.823 130.5H155.181C155.981 130.5 156.704 130.977 157.019 131.712L167.312 155.729C167.876 157.044 166.916 158.509 165.485 158.516L79.627 158.983C78.1671 158.991 77.1909 157.483 77.796 156.154L124.463 53.6802C124.789 52.9622 125.508 52.5036 126.297 52.5091L140.486 52.6087C141.596 52.6164 142.5 51.7188 142.5 50.6087Z" fill="#A58741"/>
<path d="M19.73 218L29.09 197H33.89L43.28 218H38.18L30.5 199.46H32.42L24.71 218H19.73ZM24.41 213.5L25.7 209.81H36.5L37.82 213.5H24.41ZM45.4588 218V197H54.5488C56.4288 197 58.0488 197.31 59.4088 197.93C60.7688 198.53 61.8188 199.4 62.5588 200.54C63.2988 201.68 63.6688 203.04 63.6688 204.62C63.6688 206.18 63.2988 207.53 62.5588 208.67C61.8188 209.79 60.7688 210.65 59.4088 211.25C58.0488 211.85 56.4288 212.15 54.5488 212.15H48.1588L50.3188 210.02V218H45.4588ZM58.8087 218L53.5588 210.38H58.7488L64.0588 218H58.8087ZM50.3188 210.56L48.1588 208.28H54.2788C55.7788 208.28 56.8988 207.96 57.6388 207.32C58.3788 206.66 58.7488 205.76 58.7488 204.62C58.7488 203.46 58.3788 202.56 57.6388 201.92C56.8988 201.28 55.7788 200.96 54.2788 200.96H48.1588L50.3188 198.65V210.56ZM71.5763 218V200.96H64.8563V197H83.1563V200.96H76.4363V218H71.5763ZM94.7497 218.36C91.7697 218.36 89.4397 217.53 87.7597 215.87C86.0797 214.21 85.2397 211.84 85.2397 208.76V197H90.0997V208.58C90.0997 210.58 90.5097 212.02 91.3297 212.9C92.1497 213.78 93.2997 214.22 94.7797 214.22C96.2597 214.22 97.4097 213.78 98.2297 212.9C99.0497 212.02 99.4597 210.58 99.4597 208.58V197H104.26V208.76C104.26 211.84 103.42 214.21 101.74 215.87C100.06 217.53 97.7297 218.36 94.7497 218.36ZM115.962 218.36C114.282 218.36 112.672 218.14 111.132 217.7C109.592 217.24 108.352 216.65 107.412 215.93L109.062 212.27C109.962 212.91 111.022 213.44 112.242 213.86C113.482 214.26 114.732 214.46 115.992 214.46C116.952 214.46 117.722 214.37 118.302 214.19C118.902 213.99 119.342 213.72 119.622 213.38C119.902 213.04 120.042 212.65 120.042 212.21C120.042 211.65 119.822 211.21 119.382 210.89C118.942 210.55 118.362 210.28 117.642 210.08C116.922 209.86 116.122 209.66 115.242 209.48C114.382 209.28 113.512 209.04 112.632 208.76C111.772 208.48 110.982 208.12 110.262 207.68C109.542 207.24 108.952 206.66 108.492 205.94C108.052 205.22 107.832 204.3 107.832 203.18C107.832 201.98 108.152 200.89 108.792 199.91C109.452 198.91 110.432 198.12 111.732 197.54C113.052 196.94 114.702 196.64 116.682 196.64C118.002 196.64 119.302 196.8 120.582 197.12C121.862 197.42 122.992 197.88 123.972 198.5L122.472 202.19C121.492 201.63 120.512 201.22 119.532 200.96C118.552 200.68 117.592 200.54 116.652 200.54C115.712 200.54 114.942 200.65 114.342 200.87C113.742 201.09 113.312 201.38 113.052 201.74C112.792 202.08 112.662 202.48 112.662 202.94C112.662 203.48 112.882 203.92 113.322 204.26C113.762 204.58 114.342 204.84 115.062 205.04C115.782 205.24 116.572 205.44 117.432 205.64C118.312 205.84 119.182 206.07 120.042 206.33C120.922 206.59 121.722 206.94 122.442 207.38C123.162 207.82 123.742 208.4 124.182 209.12C124.642 209.84 124.872 210.75 124.872 211.85C124.872 213.03 124.542 214.11 123.882 215.09C123.222 216.07 122.232 216.86 120.912 217.46C119.612 218.06 117.962 218.36 115.962 218.36ZM125.433 218L134.793 197H139.593L148.983 218H143.883L136.203 199.46H138.123L130.413 218H125.433ZM130.113 213.5L131.403 209.81H142.203L143.523 213.5H130.113ZM151.162 218V197H155.182L164.122 211.82H161.992L170.782 197H174.772L174.832 218H170.272L170.242 203.99H171.082L164.062 215.78H161.872L154.702 203.99H155.722V218H151.162ZM177.054 218L186.414 197H191.214L200.604 218H195.504L187.824 199.46H189.744L182.034 218H177.054ZM181.734 213.5L183.024 209.81H193.824L195.144 213.5H181.734ZM207.133 213.2L206.863 207.59L216.913 197H222.313L213.253 206.75L210.553 209.63L207.133 213.2ZM202.783 218V197H207.613V218H202.783ZM217.153 218L209.683 208.85L212.863 205.4L222.823 218H217.153Z" fill="#A58741"/>
</svg>
