<svg width="61" height="60" viewBox="0 0 61 60" fill="none" xmlns="http://www.w3.org/2000/svg">
<path d="M42.2181 13.4857V0.9375C42.2181 0.68886 42.3168 0.450403 42.4927 0.274587C42.6685 0.098772 42.9069 0 43.1556 0H56.7281C56.9767 0 57.2152 0.098772 57.391 0.274587C57.5668 0.450403 57.6656 0.68886 57.6656 0.9375C57.6656 1.18614 57.5668 1.4246 57.391 1.60041C57.2152 1.77623 56.9767 1.875 56.7281 1.875H44.0931V12.5482H55.7906V8.24402L53.2319 10.5661C53.0596 10.7228 52.835 10.8096 52.6021 10.8094C52.4789 10.8095 52.3569 10.7853 52.2431 10.7382C52.1294 10.6911 52.026 10.622 51.939 10.5348L49.279 7.87477C49.1903 7.78807 49.1197 7.68465 49.0713 7.5705C49.0229 7.45634 48.9976 7.33372 48.9969 7.20972C48.9962 7.08573 49.0201 6.96283 49.0673 6.84813C49.1144 6.73344 49.1838 6.62924 49.2715 6.54156C49.3592 6.45388 49.4634 6.38447 49.5781 6.33734C49.6928 6.29021 49.8157 6.2663 49.9397 6.26699C50.0637 6.26768 50.1863 6.29297 50.3004 6.34138C50.4146 6.38979 50.518 6.46037 50.6047 6.54902L52.6332 8.57754L58.4325 3.31453C58.6166 3.14743 58.8596 3.06032 59.108 3.07236C59.3563 3.08441 59.5897 3.19462 59.7568 3.37875C59.9239 3.56288 60.011 3.80586 59.999 4.05422C59.9869 4.30258 59.8767 4.53598 59.6926 4.70309L57.6656 6.54246V13.4858C57.6656 13.7345 57.5668 13.9729 57.391 14.1487C57.2152 14.3245 56.9767 14.4233 56.7281 14.4233H43.1556C42.9069 14.4233 42.6685 14.3245 42.4926 14.1487C42.3168 13.9728 42.2181 13.7344 42.2181 13.4857ZM58.4325 26.1028L52.6332 31.3658L50.6047 29.3373C50.518 29.2486 50.4146 29.1781 50.3004 29.1297C50.1863 29.0812 50.0637 29.056 49.9397 29.0553C49.8157 29.0546 49.6928 29.0785 49.5781 29.1256C49.4634 29.1728 49.3592 29.2422 49.2715 29.3298C49.1838 29.4175 49.1144 29.5217 49.0673 29.6364C49.0201 29.7511 48.9962 29.874 48.9969 29.998C48.9976 30.122 49.0229 30.2446 49.0713 30.3588C49.1197 30.4729 49.1903 30.5764 49.279 30.663L51.939 33.3231C52.026 33.4103 52.1294 33.4794 52.2431 33.5265C52.3569 33.5736 52.4789 33.5978 52.6021 33.5977C52.835 33.5979 53.0596 33.5111 53.2319 33.3544L55.7906 31.0323V35.3365H44.0931V24.6633H56.7281C56.9767 24.6633 57.2152 24.5645 57.391 24.3887C57.5668 24.2129 57.6656 23.9744 57.6656 23.7258C57.6656 23.4771 57.5668 23.2387 57.391 23.0629C57.2152 22.8871 56.9767 22.7883 56.7281 22.7883H43.1556C42.9069 22.7883 42.6685 22.8871 42.4927 23.0629C42.3168 23.2387 42.2181 23.4771 42.2181 23.7258V36.274C42.2181 36.5226 42.3168 36.7611 42.4927 36.9369C42.6685 37.1127 42.9069 37.2115 43.1556 37.2115H56.7281C56.9767 37.2115 57.2152 37.1127 57.391 36.9369C57.5668 36.7611 57.6656 36.5226 57.6656 36.274V29.3476C57.6656 29.3421 57.6649 29.337 57.6648 29.3314L59.6925 27.4912C59.7849 27.4089 59.86 27.309 59.9136 27.1974C59.9672 27.0858 59.9982 26.9647 60.0047 26.841C60.0113 26.7174 59.9932 26.5937 59.9517 26.4771C59.9102 26.3605 59.846 26.2532 59.7628 26.1615C59.6796 26.0698 59.579 25.9956 59.467 25.9429C59.3549 25.8903 59.2335 25.8604 59.1099 25.855C58.9862 25.8495 58.8626 25.8686 58.7464 25.9111C58.6301 25.9537 58.5234 26.0188 58.4325 26.1028ZM58.4325 48.8912L52.6332 54.1541L50.6047 52.1256C50.518 52.0369 50.4146 51.9664 50.3004 51.9179C50.1863 51.8695 50.0637 51.8442 49.9397 51.8436C49.8157 51.8429 49.6928 51.8668 49.5781 51.9139C49.4634 51.961 49.3592 52.0304 49.2715 52.1181C49.1838 52.2058 49.1144 52.31 49.0673 52.4247C49.0201 52.5394 48.9962 52.6623 48.9969 52.7863C48.9976 52.9103 49.0229 53.0329 49.0713 53.1471C49.1197 53.2612 49.1903 53.3646 49.279 53.4513L51.939 56.1114C52.026 56.1985 52.1294 56.2677 52.2431 56.3148C52.3569 56.3619 52.4789 56.3861 52.6021 56.3859C52.835 56.3862 53.0596 56.2994 53.2319 56.1427L55.7907 53.8206V58.125H44.0932V47.4517H56.7281C56.9767 47.4517 57.2152 47.3529 57.391 47.1771C57.5668 47.0013 57.6656 46.7628 57.6656 46.5142C57.6656 46.2655 57.5668 46.0271 57.391 45.8513C57.2152 45.6755 56.9767 45.5767 56.7281 45.5767H43.1556C42.9069 45.5767 42.6685 45.6755 42.4927 45.8513C42.3168 46.0271 42.2181 46.2655 42.2181 46.5142V59.0625C42.2181 59.3111 42.3168 59.5496 42.4927 59.7254C42.6685 59.9012 42.9069 60 43.1556 60H56.7281C56.9767 60 57.2152 59.9012 57.391 59.7254C57.5668 59.5496 57.6656 59.3111 57.6656 59.0625V52.1191L59.6925 50.2798C59.8766 50.1127 59.9868 49.8793 59.9989 49.6309C60.0109 49.3826 59.9238 49.1396 59.7568 48.9555C59.5897 48.7714 59.3563 48.6611 59.1079 48.6491C58.8596 48.637 58.6166 48.7241 58.4325 48.8912ZM39.5395 30.9375C39.7882 30.9375 40.0266 30.8387 40.2024 30.6629C40.3782 30.4871 40.477 30.2486 40.477 30C40.477 29.7514 40.3782 29.5129 40.2024 29.3371C40.0266 29.1613 39.7882 29.0625 39.5395 29.0625H35.6603V8.14945L39.5394 8.14957C39.788 8.14957 40.0265 8.0508 40.2023 7.87498C40.3781 7.69917 40.4769 7.46071 40.4769 7.21207C40.4769 6.96343 40.3781 6.72497 40.2023 6.54916C40.0265 6.37334 39.788 6.27457 39.5394 6.27457L34.7228 6.27445C34.4741 6.27445 34.2357 6.37323 34.0598 6.54904C33.884 6.72486 33.7853 6.96331 33.7853 7.21195V29.0625H30.6497C30.401 29.0625 30.1626 29.1613 29.9868 29.3371C29.8109 29.5129 29.7122 29.7514 29.7122 30C29.7122 30.2486 29.8109 30.4871 29.9868 30.6629C30.1626 30.8387 30.401 30.9375 30.6497 30.9375H33.7853V52.788C33.7853 53.0367 33.884 53.2751 34.0598 53.451C34.2357 53.6268 34.4741 53.7255 34.7228 53.7255L39.5394 53.7253C39.788 53.7253 40.0265 53.6265 40.2023 53.4507C40.3781 53.2749 40.4769 53.0365 40.4769 52.7878C40.4769 52.5392 40.3781 52.3007 40.2023 52.1249C40.0265 51.9491 39.788 51.8503 39.5394 51.8503L35.6603 51.8504V30.9375H39.5395ZM28.2062 27.5652C28.2665 27.9367 28.2526 28.3165 28.1652 28.6826C28.0777 29.0487 27.9186 29.3938 27.6969 29.698C27.2478 30.3177 26.5844 30.7254 25.8288 30.846C25.2068 30.9472 24.5688 30.8381 24.0158 30.536V39.3328C24.0158 41.3694 22.3589 43.0264 20.3222 43.0264H7.91998C5.88338 43.0264 4.22635 41.3694 4.22635 39.3328V30.5374C3.6729 30.8383 3.03517 30.9469 2.41334 30.846C2.0415 30.7877 1.68493 30.6562 1.36425 30.4591C1.04357 30.2621 0.76516 30.0034 0.545139 29.698C0.0960768 29.0783 -0.0847435 28.3209 0.0358424 27.5652C0.0942005 27.1934 0.225706 26.8368 0.422752 26.5161C0.619798 26.1955 0.878472 25.9171 1.18381 25.697L12.439 17.5196C13.4661 16.7754 14.8325 16.788 15.8435 17.5492L27.059 25.6977C27.6778 26.1461 28.0855 26.8095 28.2062 27.5652ZM15.855 32.8432C15.855 32.6487 15.6906 32.4843 15.496 32.4843H12.746C12.5515 32.4843 12.3871 32.6487 12.3871 32.8432V41.1513H15.855V32.8432ZM22.1407 39.3327V29.2066L14.1211 23.3801L6.10135 29.2066V39.3327C6.10135 40.3355 6.91709 41.1513 7.91998 41.1513H10.5121V32.8432C10.5121 31.6114 11.5142 30.6093 12.746 30.6093H15.496C16.7278 30.6093 17.73 31.6114 17.73 32.8432V41.1513H20.3221C21.3249 41.1513 22.1407 40.3355 22.1407 39.3327ZM26.3546 27.8607C26.3345 27.7323 26.2891 27.609 26.221 27.4982C26.1529 27.3875 26.0635 27.2913 25.958 27.2153L14.7344 19.0609L14.719 19.0494C14.3751 18.7887 13.8906 18.7835 13.5403 19.0372L2.28514 27.2146C2.17941 27.2906 2.08983 27.3869 2.02158 27.4978C1.95332 27.6087 1.90776 27.7321 1.88752 27.8607C1.86666 27.9891 1.87146 28.1204 1.90165 28.2469C1.93185 28.3734 1.98683 28.4926 2.06342 28.5977C2.13944 28.7032 2.23563 28.7926 2.34643 28.8607C2.45722 28.9288 2.58042 28.9742 2.70889 28.9944C2.8371 29.0153 2.96819 29.0106 3.09455 28.9805C3.22092 28.9503 3.34005 28.8955 3.44506 28.819L13.5699 21.4629C13.7301 21.3464 13.923 21.2837 14.121 21.2838C14.3143 21.2838 14.5077 21.3435 14.672 21.4629L24.797 28.8192C24.902 28.8957 25.0211 28.9505 25.1474 28.9806C25.2738 29.0107 25.4048 29.0154 25.533 28.9945C25.6615 28.9744 25.7847 28.9289 25.8955 28.8609C26.0063 28.7928 26.1025 28.7034 26.1785 28.5979C26.2552 28.4927 26.3102 28.3735 26.3404 28.2469C26.3707 28.1204 26.3755 27.9891 26.3546 27.8607Z" fill="#131515"/>
</svg>
