<svg width="60" height="60" viewBox="0 0 60 60" fill="none" xmlns="http://www.w3.org/2000/svg">
<path d="M43.0754 2.06213C42.7384 1.72506 42.3383 1.45775 41.8979 1.2755C41.4575 1.09324 40.9855 0.999626 40.5089 1H19.4911C18.5305 1 17.6061 1.38063 16.9283 2.06213L2.06576 16.9282C1.72726 17.2636 1.45873 17.6628 1.27578 18.1028C1.09283 18.5427 0.999091 19.0146 1.00001 19.4911V40.5125C1.00001 41.4731 1.38063 42.3975 2.06213 43.0754L16.9246 57.9415C17.6061 58.6194 18.5269 59 19.4911 59H40.5125C41.4731 59 42.3975 58.6194 43.0754 57.9379L57.9379 43.0717C58.6194 42.3939 59 41.4731 59 40.5089V19.4911C59 18.5305 58.6194 17.6061 57.9379 16.9282L43.0754 2.06213ZM55.375 40.5089L40.5089 55.375H19.4911L4.62501 40.5089V19.4911L19.4911 4.625H40.5125L55.375 19.4911V40.5089ZM30 11.875C29.0386 11.875 28.1166 12.2569 27.4367 12.9367C26.7569 13.6166 26.375 14.5386 26.375 15.5V33.625C26.375 34.5864 26.7569 35.5084 27.4367 36.1883C28.1166 36.8681 29.0386 37.25 30 37.25C30.9614 37.25 31.8834 36.8681 32.5633 36.1883C33.2431 35.5084 33.625 34.5864 33.625 33.625V15.5C33.625 14.5386 33.2431 13.6166 32.5633 12.9367C31.8834 12.2569 30.9614 11.875 30 11.875ZM26.375 44.5C26.375 44.976 26.4688 45.4474 26.6509 45.8872C26.8331 46.327 27.1001 46.7266 27.4367 47.0633C27.7734 47.3999 28.173 47.6669 28.6128 47.8491C29.0526 48.0312 29.524 48.125 30 48.125C30.9614 48.125 31.8834 47.7431 32.5633 47.0633C32.8999 46.7266 33.1669 46.327 33.3491 45.8872C33.5312 45.4474 33.625 44.976 33.625 44.5C33.625 43.5386 33.2431 42.6166 32.5633 41.9367C31.8834 41.2569 30.9614 40.875 30 40.875C29.0386 40.875 28.1166 41.2569 27.4367 41.9367C26.7569 42.6166 26.375 43.5386 26.375 44.5Z" fill="#131515"/>
</svg>
