<svg width="60" height="60" viewBox="0 0 60 60" fill="none" xmlns="http://www.w3.org/2000/svg">
<g clip-path="url(#clip0_113_88)">
<path d="M32.5 60H27.5C25.4325 60 23.75 58.3175 23.75 56.25V51.595C22.1498 51.1325 20.6065 50.4922 19.1488 49.6862L15.8563 52.98C14.4388 54.3975 11.97 54.395 10.5525 52.98L7.01625 49.445C6.3075 48.7375 5.9175 47.795 5.9175 46.7938C5.9175 45.7925 6.3075 44.85 7.01625 44.1425L10.31 40.8475C9.50397 39.391 8.86452 37.8484 8.40375 36.2487H3.75C1.6825 36.2487 0 34.5662 0 32.4987V27.4988C0 26.4963 0.39 25.555 1.0975 24.8475C1.44513 24.4982 1.85852 24.2213 2.3138 24.0327C2.76908 23.8441 3.25721 23.7476 3.75 23.7488H8.405C8.8675 22.1513 9.505 20.61 10.3125 19.15L7.02 15.8563C6.3176 15.1527 5.92308 14.1992 5.92308 13.205C5.92308 12.2108 6.3176 11.2573 7.02 10.5538L10.555 7.0175C11.9713 5.6025 14.4413 5.6 15.8588 7.0175L19.1525 10.3112C20.6091 9.5063 22.1512 8.8669 23.75 8.405V3.75C23.75 1.6825 25.4325 0 27.5 0H32.5C34.5675 0 36.25 1.6825 36.25 3.75V8.405C37.85 8.8675 39.39 9.50625 40.8475 10.3112L44.1413 7.0175C45.5588 5.6025 48.0275 5.6 49.445 7.0175L52.9812 10.5525C53.69 11.26 54.08 12.2025 54.08 13.2037C54.08 14.205 53.69 15.1475 52.9812 15.855L49.6888 19.1488C50.4951 20.6057 51.1349 22.1487 51.5963 23.7488H56.25C58.3175 23.7488 60 25.4313 60 27.4988V32.4987C60 33.5013 59.61 34.4425 58.9025 35.15C58.195 35.8575 57.2525 36.2487 56.25 36.2487H51.595C51.1328 37.8485 50.493 39.3914 49.6875 40.8488L52.98 44.1425C53.6824 44.8461 54.0769 45.7996 54.0769 46.7938C54.0769 47.7879 53.6824 48.7414 52.98 49.445L49.445 52.9812C48.0275 54.3975 45.5588 54.3975 44.1413 52.9812L40.85 49.6875C39.393 50.4929 37.8505 51.1327 36.2513 51.595V56.25C36.2496 57.2443 35.8538 58.1973 35.1506 58.9003C34.4475 59.6032 33.4943 59.9987 32.5 60ZM18.9462 46.8725C19.17 46.8725 19.3962 46.9325 19.5975 47.055C21.3615 48.1349 23.2834 48.9325 25.2938 49.4188C25.5663 49.4846 25.8088 49.6403 25.9823 49.8607C26.1557 50.081 26.25 50.3533 26.25 50.6338V56.25C26.25 56.94 26.8113 57.5 27.5 57.5H32.5C33.1888 57.5 33.75 56.94 33.75 56.25V50.6338C33.75 50.3533 33.8443 50.081 34.0177 49.8607C34.1912 49.6403 34.4337 49.4846 34.7062 49.4188C36.7161 48.9328 38.6376 48.1356 40.4012 47.0563C40.8962 46.755 41.5287 46.8312 41.9375 47.2388L45.91 51.2125C46.3787 51.68 47.2088 51.6825 47.6788 51.2125L51.2138 47.6762C51.4481 47.4418 51.5797 47.124 51.5797 46.7925C51.5797 46.461 51.4481 46.1432 51.2138 45.9088L47.24 41.935C47.0415 41.7366 46.9156 41.4772 46.8825 41.1985C46.8494 40.9198 46.9111 40.6381 47.0575 40.3988C48.1367 38.6352 48.9335 36.7136 49.4188 34.7038C49.4844 34.4309 49.64 34.1882 49.8603 34.0145C50.0807 33.8408 50.3531 33.7463 50.6338 33.7463H56.25C56.4141 33.7469 56.5768 33.7151 56.7286 33.6527C56.8803 33.5903 57.0183 33.4984 57.1345 33.3825C57.2506 33.2665 57.3427 33.1288 57.4055 32.9771C57.4682 32.8255 57.5003 32.6629 57.5 32.4987V27.4988C57.5 26.8088 56.9388 26.2488 56.25 26.2488H50.6338C50.3531 26.2489 50.0806 26.1545 49.8601 25.9808C49.6397 25.8071 49.4842 25.5642 49.4188 25.2913C48.9337 23.2813 48.1369 21.3597 47.0575 19.5963C46.9111 19.3569 46.8494 19.0752 46.8825 18.7965C46.9156 18.5178 47.0415 18.2584 47.24 18.06L51.2138 14.0863C51.4463 13.8525 51.58 13.5312 51.58 13.2025C51.58 12.8738 51.4463 12.5512 51.2138 12.3187L47.6775 8.78375C47.4389 8.55698 47.1223 8.43053 46.7931 8.43053C46.464 8.43053 46.1474 8.55698 45.9088 8.78375L41.935 12.7575C41.7372 12.9569 41.4777 13.0835 41.1987 13.1167C40.9198 13.1498 40.6378 13.0875 40.3988 12.94C38.6359 11.8611 36.7152 11.0644 34.7062 10.5788C34.4338 10.5136 34.1912 10.3584 34.0177 10.1385C33.8442 9.91846 33.7499 9.64642 33.75 9.36625V3.75C33.75 3.06 33.1888 2.5 32.5 2.5H27.5C26.8113 2.5 26.25 3.06 26.25 3.75V9.36625C26.25 9.64668 26.1557 9.91897 25.9823 10.1393C25.8088 10.3597 25.5663 10.5153 25.2938 10.5813C23.284 11.0668 21.3625 11.8635 19.5987 12.9425C19.3596 13.0891 19.0781 13.1508 18.7996 13.1177C18.5211 13.0845 18.2618 12.9585 18.0638 12.76L14.09 8.78625C13.8514 8.55948 13.5348 8.43303 13.2056 8.43303C12.8765 8.43303 12.5599 8.55948 12.3213 8.78625L8.7875 12.3213C8.55316 12.5557 8.42152 12.8735 8.42152 13.205C8.42152 13.5365 8.55316 13.8543 8.7875 14.0887L12.7612 18.0625C12.9597 18.2609 13.0856 18.5203 13.1187 18.799C13.1518 19.0777 13.0902 19.3594 12.9437 19.5987C11.8646 21.3619 11.0678 23.2831 10.5825 25.2925C10.5168 25.5653 10.3613 25.8081 10.1409 25.9818C9.92052 26.1555 9.6481 26.2499 9.3675 26.25H3.75C3.58577 26.2493 3.42303 26.2812 3.27115 26.3437C3.11928 26.4062 2.98128 26.4981 2.86509 26.6142C2.7489 26.7303 2.65682 26.8682 2.59416 27.02C2.53151 27.1718 2.4995 27.3345 2.5 27.4988V32.4987C2.5 33.1888 3.06125 33.7487 3.75 33.7487H9.36625C9.94375 33.7487 10.4462 34.1437 10.5813 34.7062C11.0668 36.7156 11.8635 38.6367 12.9425 40.4C13.0889 40.6394 13.1506 40.9211 13.1175 41.1998C13.0844 41.4784 12.9584 41.7378 12.76 41.9362L8.78625 45.9113C8.55375 46.145 8.42 46.4663 8.42 46.795C8.42 47.1238 8.55375 47.4463 8.78625 47.6788L12.3225 51.2138C12.5611 51.4405 12.8777 51.567 13.2069 51.567C13.536 51.567 13.8526 51.4405 14.0912 51.2138L18.0638 47.24C18.1791 47.1233 18.3166 47.0307 18.4681 46.9676C18.6196 46.9045 18.7821 46.8722 18.9462 46.8725Z" fill="black"/>
<path d="M30 42.5C23.1075 42.5 17.5 36.8925 17.5 30C17.5 23.1075 23.1075 17.5 30 17.5C36.8925 17.5 42.5 23.1075 42.5 30C42.5 36.8925 36.8937 42.5 30 42.5ZM30 20C24.4863 20 20 24.4863 20 30C20 35.5138 24.4863 40 30 40C35.5138 40 40 35.5138 40 30C40 24.4863 35.515 20 30 20Z" fill="black"/>
</g>
<defs>
<clipPath id="clip0_113_88">
<rect width="60" height="60" fill="white"/>
</clipPath>
</defs>
</svg>
