<svg width="60" height="60" viewBox="0 0 60 60" fill="none" xmlns="http://www.w3.org/2000/svg">
<g clip-path="url(#clip0_116_88)">
<path d="M56.7621 16.2085C55.8885 15.344 54.8885 14.6429 53.7839 14.1194V8.72748C53.7839 5.48585 51.1483 2.84863 47.9089 2.84863C47.4805 2.84863 47.0504 2.89595 46.6304 2.98927L4.65364 12.3184C3.35293 12.6075 2.17738 13.3391 1.34367 14.3784C0.509756 15.4179 0.0505371 16.7242 0.0505371 18.0566V29.5949C0.0505371 30.927 0.509553 32.2329 1.34276 33.2722C2.17596 34.3116 3.35111 35.0434 4.65132 35.3328L6.70193 35.7894C6.76785 36.0035 6.84853 36.216 6.94387 36.4259L6.96813 36.4792L6.99382 36.5317L15.3989 53.7755C16.365 55.8291 18.4441 57.1517 20.7179 57.1517C20.7326 57.1517 20.7468 57.1517 20.7615 57.1515L21.3617 57.1477C23.3432 57.1351 25.1713 56.1359 26.2518 54.4747C27.3323 52.8136 27.5048 50.7376 26.713 48.921L26.6946 48.8788L26.6754 48.8371L25.1351 45.4979C25.3754 45.3954 25.6206 45.2791 25.8661 45.1461C27.678 44.1646 28.8541 42.6665 29.3017 40.8207L46.6283 44.6779C47.0486 44.7715 47.4796 44.8189 47.9091 44.8189C51.1484 44.8189 53.784 42.1817 53.784 38.9402V33.5488C54.8886 33.0253 55.8886 32.3244 56.7622 31.4598C57.7588 30.4734 58.5422 29.3225 59.0905 28.0393C59.6607 26.7055 59.9495 25.2907 59.9495 23.8343C59.9495 22.3779 59.6607 20.963 59.0905 19.6291C58.5421 18.3457 57.7587 17.1949 56.7621 16.2085ZM49.4525 34.5904V38.94C49.4525 39.8128 48.7398 40.4876 47.9088 40.4876C47.7972 40.4876 47.6835 40.4753 47.5694 40.4499L19.972 34.3061L17.3099 33.7135L10.1423 32.1178L7.46416 31.5217L5.5926 31.105C4.88507 30.9474 4.38187 30.3198 4.38187 29.5951V18.0566C4.38187 17.3316 4.88537 16.7039 5.59311 16.5466L47.5699 7.21748C47.6841 7.1921 47.7974 7.18007 47.9088 7.18007C48.7398 7.18007 49.4525 7.85484 49.4525 8.72758V13.0778V17.412V23.8257V23.8427V30.2564V34.5904ZM21.334 52.8162L20.7277 52.8199C20.7244 52.8199 20.7211 52.8199 20.7179 52.8199C20.1116 52.8199 19.5606 52.4655 19.3096 51.9129L12.0283 36.9751L16.9375 38.0679L22.7423 50.6513C23.186 51.6691 22.4444 52.809 21.334 52.8162ZM22.2535 39.2514L25.0702 39.8783C24.8996 40.4766 24.5157 40.9296 23.8873 41.2904C23.6993 41.3984 23.5066 41.4879 23.3196 41.5623L22.2535 39.2514ZM53.7839 28.3115V23.8426V23.8256V19.3565C54.919 20.5144 55.6182 22.0932 55.6182 23.834C55.6182 25.5747 54.919 27.1536 53.7839 28.3115Z" fill="black"/>
<path d="M20.7179 57.2021C18.4321 57.2021 16.3262 55.8655 15.3531 53.7968L6.92275 36.5012L6.89788 36.4466C6.80658 36.2457 6.72742 36.0392 6.66241 35.8322L4.64031 35.3821C3.32888 35.09 2.14383 34.352 1.30334 33.3037C0.462858 32.2554 0 30.9383 0 29.5949V18.0567C0 16.7128 0.463162 15.3953 1.30405 14.3469C2.14494 13.2987 3.3306 12.5607 4.64254 12.2691L46.6193 2.93997C47.043 2.84584 47.4768 2.79822 47.9089 2.79822C51.1762 2.79822 53.8343 5.45819 53.8343 8.72762V14.0877C54.9324 14.612 55.9292 15.3134 56.7976 16.1728C57.7988 17.1637 58.5859 18.3198 59.137 19.6091C59.7096 20.949 60 22.3705 60 23.8342C60 25.2979 59.7096 26.7193 59.137 28.0592C58.5859 29.3485 57.7989 30.5047 56.7976 31.4956C55.9292 32.355 54.9324 33.0564 53.8343 33.5806V38.9401C53.8343 42.2095 51.1762 44.8694 47.9089 44.8694C47.4755 44.8694 47.0409 44.8215 46.6171 44.7272L29.3388 40.8808C28.8765 42.7287 27.6848 44.2184 25.8899 45.1905C25.6727 45.3083 25.4416 45.4203 25.2025 45.5239L26.7592 48.9008C27.5577 50.7329 27.3838 52.8268 26.294 54.5023C25.2042 56.1777 23.3604 57.1855 21.3618 57.1982L20.7179 57.2021ZM47.909 2.89922C47.4844 2.89922 47.0579 2.94613 46.6413 3.03865L4.66458 12.3678C3.37498 12.6544 2.20965 13.3798 1.38301 14.4101C0.556279 15.4407 0.101105 16.7357 0.101105 18.0567V29.595C0.101105 30.9155 0.556077 32.2102 1.38221 33.2406C2.20833 34.2709 3.37316 34.9964 4.66225 35.2834L6.74157 35.7464L6.75017 35.7744C6.81548 35.9867 6.89616 36.1987 6.98979 36.4048L7.03913 36.5093L15.4442 53.7532C16.4009 55.787 18.4709 57.1009 20.7177 57.1009L21.3611 57.0969C23.3255 57.0844 25.1378 56.0937 26.2091 54.447C27.2802 52.8001 27.4512 50.7419 26.6663 48.9411L26.6291 48.8581L25.0669 45.4717L25.1149 45.4512C25.3681 45.3433 25.6126 45.2256 25.8416 45.1014C27.6262 44.1347 28.8056 42.6503 29.2523 40.8085L29.264 40.7603L46.6389 44.6283C47.0555 44.7211 47.4828 44.7681 47.9088 44.7681C51.1204 44.7681 53.7331 42.1536 53.7331 38.9399V33.5165L53.762 33.5028C54.8611 32.982 55.8584 32.2823 56.7263 31.4235C57.7183 30.4419 58.4979 29.2965 59.0437 28.0192C59.611 26.6919 59.8987 25.2838 59.8987 23.834C59.8987 22.3842 59.611 20.976 59.0437 19.6487C58.498 18.3715 57.7183 17.2262 56.7263 16.2445C55.8584 15.3856 54.8611 14.686 53.762 14.1651L53.7331 14.1515V8.72751C53.7333 5.51379 51.1205 2.89922 47.909 2.89922ZM20.728 52.8705H20.7179C20.093 52.8705 19.5221 52.5028 19.2636 51.9339L11.9371 36.9029L16.9731 38.024L22.7883 50.6301C23.0039 51.1247 22.957 51.6889 22.6635 52.1403C22.3699 52.5918 21.873 52.8633 21.3346 52.8669L20.728 52.8705ZM12.1197 37.0473L19.355 51.8908C19.5978 52.425 20.1325 52.7693 20.7179 52.7693L21.3337 52.7656C21.8382 52.7623 22.3035 52.508 22.5785 52.0851C22.8536 51.6623 22.8974 51.1338 22.6959 50.6716L16.9021 38.1118L12.1197 37.0473ZM23.2938 41.6271L22.1648 39.1799L25.1335 39.8406L25.1187 39.8922C24.9468 40.4953 24.5522 40.967 23.9124 41.3344C23.7375 41.4349 23.5442 41.5274 23.3382 41.6095L23.2938 41.6271ZM22.3421 39.3229L23.3452 41.4975C23.5301 41.4218 23.7038 41.3375 23.8621 41.2467C24.468 40.8989 24.8329 40.4749 25.0062 39.916L22.3421 39.3229ZM47.909 40.5381C47.7922 40.5381 47.6743 40.5249 47.5584 40.4991L5.5818 31.1543C4.84565 30.9903 4.33144 30.3491 4.33144 29.5951V18.0567C4.33144 17.3022 4.84576 16.661 5.58231 16.4973L47.5591 7.16817C47.6744 7.14259 47.7921 7.12955 47.909 7.12955C48.788 7.12955 49.5032 7.84649 49.5032 8.72762V38.9399C49.5031 39.8211 48.788 40.5381 47.909 40.5381ZM47.909 7.23066C47.7995 7.23066 47.6892 7.24289 47.5811 7.26685L5.60425 16.596C4.91441 16.7493 4.43254 17.3499 4.43254 18.0567V29.595C4.43254 30.3014 4.9142 30.9019 5.60374 31.0555L47.5805 40.4004C47.6891 40.4247 47.7996 40.4369 47.909 40.4369C48.7323 40.4369 49.4021 39.7653 49.4021 38.9399V8.72762C49.402 7.9022 48.7322 7.23066 47.909 7.23066ZM53.7333 28.4353V19.2328L53.82 19.3212C55.0121 20.5374 55.6687 22.14 55.6687 23.834C55.6687 25.528 55.0121 27.1307 53.82 28.3469L53.7333 28.4353ZM53.8344 19.482V28.186C54.953 27.0003 55.5677 25.4599 55.5677 23.834C55.5677 22.2081 54.953 20.6677 53.8344 19.482Z" fill="black"/>
</g>
<defs>
<clipPath id="clip0_116_88">
<rect width="60" height="60" fill="white"/>
</clipPath>
</defs>
</svg>
