<?xml version="1.0" encoding="utf-8"?>
<svg viewBox="9.248 89.086 188.402 75.807" xmlns="http://www.w3.org/2000/svg">
  <path d="M 56.253 96.088 L 56.253 90.197 C 56.253 89.583 55.756 89.086 55.142 89.086 L 44.313 89.086 C 41.103 89.51 39.742 90.39 38.204 93.251 L 10.158 153.786 C 7.103 162.117 12.379 164.893 16.544 164.893 L 75.135 164.893 C 78.745 164.893 81.8 158.229 80.689 154.897 L 70.433 132.225 C 70.253 131.827 69.857 131.571 69.421 131.571 L 49.607 131.571 C 48.809 131.571 48.272 130.756 48.586 130.023 L 52.81 120.166 C 53.183 119.297 54.402 119.261 54.825 120.107 L 55.946 122.349 C 56.134 122.726 56.519 122.963 56.939 122.963 L 64.26 122.963 C 65.064 122.963 65.602 122.135 65.274 121.4 L 58.213 105.572 C 58.034 105.172 57.637 104.914 57.198 104.914 L 50.859 104.914 C 50.423 104.914 50.028 105.168 49.848 105.565 L 29.734 149.762 C 29.405 150.486 29.92 151.311 30.715 151.333 L 38.558 151.544 C 39.014 151.556 39.432 151.289 39.61 150.868 L 43.747 141.134 C 43.922 140.723 44.324 140.457 44.77 140.457 L 63.296 140.457 C 63.74 140.457 64.141 140.722 64.316 141.13 L 70.033 154.469 C 70.346 155.199 69.813 156.013 69.018 156.016 L 21.335 156.276 C 20.525 156.28 19.983 155.443 20.319 154.705 L 46.236 97.794 C 46.417 97.395 46.816 97.141 47.254 97.144 L 55.135 97.199 C 55.751 97.203 56.253 96.705 56.253 96.088 Z" fill="#0052cd" style="transform-origin: 45.0843px 126.99px;"/>
  <path d="M 80.432 134.737 L 80.432 120.858 L 86.439 120.858 C 87.681 120.858 88.753 121.062 89.652 121.472 C 90.55 121.868 91.244 122.443 91.734 123.197 C 92.222 123.95 92.467 124.849 92.467 125.893 C 92.467 126.924 92.222 127.817 91.734 128.57 C 91.244 129.31 90.55 129.879 89.652 130.275 C 88.753 130.672 87.681 130.87 86.439 130.87 L 82.216 130.87 L 83.644 129.463 L 83.644 134.737 L 80.432 134.737 Z M 89.255 134.737 L 85.785 129.7 L 89.215 129.7 L 92.725 134.737 L 89.255 134.737 Z M 83.644 129.819 L 82.216 128.312 L 86.261 128.312 C 87.252 128.312 87.992 128.101 88.482 127.678 C 88.971 127.242 89.215 126.647 89.215 125.893 C 89.215 125.127 88.971 124.532 88.482 124.108 C 87.992 123.686 87.252 123.474 86.261 123.474 L 82.216 123.474 L 83.644 121.948 L 83.644 129.819 Z M 97.692 134.737 L 97.692 123.474 L 93.251 123.474 L 93.251 120.858 L 105.346 120.858 L 105.346 123.474 L 100.905 123.474 L 100.905 134.737 L 97.692 134.737 Z M 113.008 134.974 C 111.039 134.974 109.498 134.426 108.388 133.328 C 107.278 132.232 106.723 130.665 106.723 128.63 L 106.723 120.858 L 109.934 120.858 L 109.934 128.511 C 109.934 129.832 110.206 130.784 110.747 131.366 C 111.289 131.947 112.049 132.238 113.028 132.238 C 114.006 132.238 114.765 131.947 115.308 131.366 C 115.849 130.784 116.12 129.832 116.12 128.511 L 116.12 120.858 L 119.293 120.858 L 119.293 128.63 C 119.293 130.665 118.737 132.232 117.627 133.328 C 116.517 134.426 114.978 134.974 113.008 134.974 Z M 127.027 134.974 C 125.916 134.974 124.852 134.828 123.835 134.538 C 122.817 134.234 121.997 133.844 121.376 133.368 L 122.466 130.949 C 123.062 131.372 123.762 131.722 124.568 132 C 125.388 132.265 126.214 132.397 127.046 132.397 C 127.681 132.397 128.19 132.337 128.573 132.218 C 128.97 132.086 129.26 131.907 129.446 131.683 C 129.63 131.458 129.723 131.2 129.723 130.909 C 129.723 130.54 129.578 130.248 129.286 130.037 C 128.996 129.813 128.613 129.634 128.137 129.502 C 127.661 129.356 127.132 129.224 126.551 129.105 C 125.983 128.973 125.407 128.815 124.826 128.63 C 124.258 128.444 123.735 128.207 123.26 127.915 C 122.784 127.625 122.394 127.242 122.09 126.766 C 121.799 126.29 121.653 125.682 121.653 124.941 C 121.653 124.149 121.865 123.428 122.289 122.78 C 122.724 122.12 123.372 121.598 124.232 121.215 C 125.103 120.818 126.194 120.619 127.503 120.619 C 128.375 120.619 129.234 120.725 130.08 120.937 C 130.925 121.135 131.673 121.439 132.32 121.849 L 131.329 124.287 C 130.681 123.917 130.034 123.646 129.386 123.474 C 128.738 123.29 128.104 123.197 127.482 123.197 C 126.862 123.197 126.352 123.27 125.955 123.415 C 125.56 123.56 125.275 123.752 125.103 123.99 C 124.931 124.215 124.845 124.479 124.845 124.783 C 124.845 125.14 124.991 125.431 125.282 125.656 C 125.572 125.867 125.955 126.039 126.431 126.171 C 126.908 126.303 127.429 126.436 127.998 126.568 C 128.58 126.7 129.154 126.852 129.723 127.023 C 130.305 127.195 130.834 127.427 131.31 127.717 C 131.785 128.008 132.169 128.391 132.459 128.867 C 132.763 129.343 132.915 129.944 132.915 130.672 C 132.915 131.452 132.698 132.165 132.261 132.813 C 131.825 133.461 131.171 133.983 130.298 134.379 C 129.439 134.776 128.348 134.974 127.027 134.974 Z M 133.286 134.737 L 139.472 120.858 L 142.644 120.858 L 148.85 134.737 L 145.48 134.737 L 140.404 122.483 L 141.673 122.483 L 136.577 134.737 L 133.286 134.737 Z M 136.379 131.762 L 137.232 129.324 L 144.369 129.324 L 145.241 131.762 L 136.379 131.762 Z M 150.29 134.737 L 150.29 120.858 L 152.947 120.858 L 158.855 130.652 L 157.447 130.652 L 163.257 120.858 L 165.894 120.858 L 165.933 134.737 L 162.92 134.737 L 162.899 125.477 L 163.454 125.477 L 158.816 133.268 L 157.368 133.268 L 152.629 125.477 L 153.303 125.477 L 153.303 134.737 L 150.29 134.737 Z M 167.401 134.737 L 173.588 120.858 L 176.76 120.858 L 182.966 134.737 L 179.595 134.737 L 174.519 122.483 L 175.788 122.483 L 170.693 134.737 L 167.401 134.737 Z M 170.495 131.762 L 171.347 129.324 L 178.485 129.324 L 179.357 131.762 L 170.495 131.762 Z M 187.281 131.564 L 187.102 127.856 L 193.744 120.858 L 197.313 120.858 L 191.325 127.301 L 189.541 129.205 L 187.281 131.564 Z M 184.405 134.737 L 184.405 120.858 L 187.597 120.858 L 187.597 134.737 L 184.405 134.737 Z M 193.903 134.737 L 188.966 128.688 L 191.067 126.409 L 197.65 134.737 L 193.903 134.737 Z" fill="#0052cd" style="transform-origin: 139.041px 127.797px;"/>
</svg>